# xmcd
#
# Track frame offsets:
#	150
#	18280
#	32652
#	49883
#	66391
#	84168
#	98154
#	116490
#	134407
#	152827
#	175007
#	193553
#	225867
#	250557
#	266574
#	285754
#	304568
#	329584
#
# Disc length: 4681 seconds
#
# Revision: 0
# Processed by: cddbd v1.5.2PL0 Copyright (c) Steve Scherf et al.
# Submitted via: dBpowerAMP V4.0
#
DISCID=e0124712
DTITLE=Various Artist - Various
DYEAR=2010
DGENRE=Country
TTITLE0=do i
TTITLE1=gunpowder and lead
TTITLE2=white liar
TTITLE3=consider me gone
TTITLE4=bartender
TTITLE5=business doing pleasure with you
TTITLE6=southern voice
TTITLE7=need you know
TTITLE8=what i need to do
TTITLE9=never met someone like me
TTITLE10=darling
TTITLE11=blues man
TTITLE12=only god knows why
TTITLE13=cross my heart
TTITLE14=a womans love
TTITLE15=only u can love me this way
TTITLE16=til summer comes around
TTITLE17=waymans song i'm gonna miss you
EXTD=Various Artis
EXTT0=
EXTT1=
EXTT2=
EXTT3=
EXTT4=
EXTT5=
EXTT6=
EXTT7=
EXTT8=
EXTT9=
EXTT10=
EXTT11=
EXTT12=
EXTT13=
EXTT14=
EXTT15=
EXTT16=
EXTT17=
PLAYORDER=
